<svg width="1728" height="1350" viewBox="0 0 1728 1350" fill="none" xmlns="http://www.w3.org/2000/svg">
<path fill-rule="evenodd" clip-rule="evenodd" d="M1728 0H0V1194.1V1196.63V1310.27C4.43503 1306.54 17.9619 1299.08 36.589 1299.08C46.8444 1299.08 56.1319 1303.15 65.1619 1307.11C76.6338 1312.14 87.6903 1316.99 99.7883 1313.07C108.194 1310.35 116.096 1299.17 124.865 1286.76C138.65 1267.26 154.575 1244.72 177.956 1247.29C197.115 1249.39 222.533 1274.32 247.731 1299.03C272.841 1323.66 297.734 1348.07 315.996 1349.46C334.896 1350.91 356.458 1334.43 377.244 1318.54C396.699 1303.67 415.475 1289.32 430.753 1290.68C448.733 1292.27 460.79 1305.19 470.907 1316.04C478.571 1324.25 485.121 1331.27 492.289 1331.27C503.16 1331.27 507.636 1327.08 522.439 1313.24C530.281 1305.9 541.023 1295.85 557.151 1282.28C594.042 1251.23 619.452 1255.32 638.342 1258.36C643.297 1259.16 647.803 1259.89 651.95 1259.89C658.373 1259.89 665.829 1259.6 673.543 1259.3C689.798 1258.66 707.197 1257.99 718.475 1259.89C725.337 1261.04 732.482 1264.82 740.494 1269.05C751.901 1275.08 765.066 1282.04 781.675 1283.68C793.422 1284.84 802.585 1280.69 812.623 1276.14C826.746 1269.74 842.601 1262.56 869.821 1268.28C893.189 1273.2 901.48 1281.29 910.667 1290.25C919.787 1299.15 929.79 1308.9 956.304 1317.27C988.423 1327.41 1026.6 1317.66 1059.5 1309.26C1081.11 1303.75 1100.45 1298.81 1114.3 1300.48C1129.07 1302.25 1138.19 1313.04 1147.32 1323.84C1159.78 1338.58 1172.25 1353.34 1199.12 1345.26C1240.72 1332.76 1242.51 1333.66 1259.01 1341.98C1260.98 1342.97 1263.16 1344.07 1265.65 1345.26C1288.93 1356.46 1303.9 1348.06 1337.16 1317.27C1359.55 1296.54 1376.67 1296.74 1394.6 1296.96C1403.3 1297.06 1412.2 1297.16 1421.98 1294.88C1432.87 1292.33 1442.21 1286.27 1451.38 1280.33C1467.42 1269.93 1482.91 1259.88 1505.14 1269.68C1520.17 1276.31 1530.59 1291.24 1540.09 1304.86C1552.66 1322.89 1563.65 1338.64 1581.64 1329.87C1595.08 1323.32 1604.31 1305.63 1613.68 1287.68C1626.33 1263.42 1639.24 1238.68 1663.14 1240.29C1696.4 1242.53 1720.24 1297.21 1728 1324.27V1196.63V1194.1V0Z" fill="#FFE7E7"/>
</svg>
