<svg width="165" height="141" viewBox="0 0 165 141" fill="none" xmlns="http://www.w3.org/2000/svg">
<path d="M161.618 47.7695C151.995 32.3516 126.78 31.9026 115.375 33.6054C90.6597 31.5247 74.3659 22.3545 64.6406 13.5472C54.9152 4.73979 42.4437 -4.29872 18.8441 3.22477C-4.75549 10.7483 -4.37658 37.4089 15.1458 46.2802C34.6681 55.1515 37.4184 69.4582 29.1081 77.5081C20.7979 85.5579 -4.94989 107.356 15.836 122.42C36.6219 137.485 61.74 119.628 88.2773 132.703C114.815 145.779 126.094 139.881 134.775 130.341C143.456 120.801 130.685 104.509 134.727 92.4863C138.768 80.4632 173.648 67.0419 161.618 47.7695Z" fill="#F8DCDD"/>
</svg>
