<svg width="146" height="142" viewBox="0 0 146 142" fill="none" xmlns="http://www.w3.org/2000/svg">
<path d="M120.617 2.1537C106.374 -4.44696 89.7524 9.31001 83.2218 17.0136C66.0791 29.2229 50.7375 31.2102 39.8533 29.8049C28.969 28.3997 16.1801 28.351 4.73865 47.4012C-6.70279 66.4514 7.35599 86.9625 24.6412 82.9368C41.9264 78.9111 51.1262 88.493 49.8952 99.399C48.6642 110.305 43.2221 141.653 64.537 141.734C85.852 141.815 92.9268 113.883 116.95 109.201C140.973 104.519 145.249 93.6248 145.949 81.3529C146.648 69.081 129.907 63.5619 126.305 51.9555C122.703 40.3491 138.42 10.4045 120.617 2.1537Z" fill="#002A4E"/>
</svg>
