<svg width="150" height="90" viewBox="0 0 150 90" fill="none" xmlns="http://www.w3.org/2000/svg">
<path d="M75.1505 106.271C48.3225 113.529 29.1109 96.1892 22.8586 86.6118C12.0592 77.5385 5.80682 54.8551 3.53326 32.1718C1.25969 9.48847 6.37521 1.92737 16.6063 14.5292C24.7911 24.6107 32.5212 49.6464 35.3632 60.904C35.5526 57.0394 36.4999 44.4711 38.7735 25.1147C41.6155 0.919173 56.3936 -1.09712 62.0775 7.97621C66.6247 15.2349 65.109 35.5322 63.7827 44.7736C66.2457 40.909 74.5821 30.8612 88.2235 21.5862C105.275 9.99255 112.096 15.5374 106.98 28.6433C102.888 39.128 98.0756 56.5354 96.181 63.9284C101.865 52.8388 117.211 41.7492 130.284 36.2044C143.357 30.6596 150.747 36.2044 145.063 48.3022C139.379 60.4 108.686 97.1973 75.1505 106.271Z" fill="#F8DCDD" stroke="#F8DCDD" stroke-width="5"/>
</svg>
