<svg width="247" height="116" viewBox="0 0 247 116" fill="none" xmlns="http://www.w3.org/2000/svg">
<path d="M73.5927 62.8885C68.1306 55.1276 68.2823 48.4219 69.0409 46.0391C69.0409 30.7215 66.1961 27.658 63.3512 24.5944C60.5064 21.5309 44.0062 9.78738 19.5404 11.3191C-4.92533 12.8509 -13.46 25.6156 -15.7359 34.8062C-18.0118 43.9968 -4.92544 61.3568 -1.51161 67.4838C1.90222 73.6109 1.90222 86.3756 3.04016 98.6297C4.17811 110.884 17.2644 113.947 21.8162 115.479C26.368 117.011 58.2304 114.969 71.3167 111.905C84.4031 108.841 92.3687 97.6085 91.7997 87.3968C91.2308 77.185 80.4204 72.5897 73.5927 62.8885Z" fill="#741445"/>
<path d="M198.197 3.66034C195.922 6.9281 195.353 21.3607 195.353 28.1686C187.956 8.25566 181.697 3.66034 179.99 4.68149C178.283 5.70264 176.577 10.298 179.99 21.5309C183.404 32.7638 187.387 39.4015 194.215 45.5285C201.042 51.6556 215.836 52.1662 224.37 45.5285C232.905 38.8909 243.715 28.1686 245.991 21.5309C248.267 14.8932 247.129 10.298 238.025 14.3827C230.743 17.6504 225.887 24.9348 224.37 28.1686C224.939 24.254 226.418 15.1996 227.784 10.298C229.491 4.1709 226.077 3.66034 220.956 6.21326C216.86 8.25559 210.525 16.2548 207.87 19.9991C208.249 16.425 208.553 8.15351 206.732 3.66034C204.456 -1.95613 201.042 -0.424366 198.197 3.66034Z" fill="#741445"/>
</svg>
