<svg width="44" height="28" viewBox="0 0 44 28" fill="none" xmlns="http://www.w3.org/2000/svg">
<path d="M0.33712 2.15289C0.067372 1.2041 1.23628 0.373921 1.85445 0.0774266C8.59813 -0.634159 11.2956 3.73419 11.8014 6.00731C12.8129 10.7512 14.9372 20.5059 15.3418 21.5733C15.7465 22.6406 17.6459 23.204 18.5451 23.3522C22.4227 23.451 30.414 23.5894 31.3581 23.3522C32.3022 23.115 32.9878 22.3639 33.2126 22.018L39.4505 12.2337C40.1249 11.8878 41.7097 11.4035 42.6538 12.2337C43.5979 13.0639 43.3843 14.3586 43.1595 14.9021L40.2935 19.646C36.7868 25.6945 34.1118 27.4043 33.2126 27.5031H18.0393C17.3649 27.5031 12.4758 26.7619 11.127 23.6487C9.77829 20.5355 8.09237 10.01 7.08081 6.74855C6.06926 3.48711 2.69742 4.52484 1.85445 4.0801C1.01148 3.63536 0.674304 3.33886 0.33712 2.15289Z" fill="#2F292A"/>
<path d="M22.0855 3.19064V8.67578H18.0393C16.8254 8.67578 17.5335 9.86176 18.0393 10.4547C19.388 11.9372 22.4564 15.1986 23.94 16.3846C25.4236 17.5706 26.4689 16.8788 26.8061 16.3846C28.3234 14.8527 31.5941 11.5221 32.5382 10.4547C33.4824 9.38737 32.9316 8.82403 32.5382 8.67578H28.3234V2.89415C28.2672 2.39999 27.5816 1.41168 25.2888 1.41168C22.9959 1.41168 22.1979 2.59765 22.0855 3.19064Z" fill="#2F292A"/>
</svg>
