<svg width="122" height="90" viewBox="0 0 122 90" fill="none" xmlns="http://www.w3.org/2000/svg">
<path d="M11.1603 61.7277C21.0258 81.8556 38.43 88.6196 45.899 89.4856C77.0934 92.1352 105.406 61.0463 116.306 46.8675C127.207 32.6886 120.989 23.5527 105.405 29.3028C92.938 33.9029 82.3957 47.1886 78.683 53.2564C80.3342 47.3937 84.2434 34.0009 86.6706 27.3313C89.7046 18.9943 93.8144 6.21853 80.1374 11.5143C69.1957 15.751 56.8015 30.0498 51.9721 36.6697C52.3177 33.4058 53.0296 25.5005 53.1118 19.99C53.2146 13.102 51.6487 2.64356 47.0487 0.522113C42.4488 -1.59934 35.8842 4.57593 32.8952 13.8674C30.5041 21.3005 29.0136 40.5303 28.5673 49.216C22.8264 32.0307 10.8682 5.70943 4.26474 6.53183C-2.33871 7.35422 -1.17148 36.5679 11.1603 61.7277Z" fill="#741445"/>
</svg>
