<svg width="197" height="151" viewBox="0 0 197 151" fill="none" xmlns="http://www.w3.org/2000/svg">
<path d="M157.294 2.46837C137.799 -4.70606 116.385 9.78019 108.114 17.9201C85.9056 30.7526 65.4732 32.7149 50.8018 31.1083C36.1304 29.5018 18.9914 29.3211 4.84796 49.4978C-9.29553 69.6745 10.8198 91.6643 33.7295 87.5503C56.6392 83.4363 69.5629 93.7355 68.593 105.34C67.6231 116.945 62.2843 150.281 90.8493 150.582C119.414 150.883 127.154 121.202 159.05 116.457C190.947 111.712 195.998 100.15 196.171 87.0853C196.344 74.0206 173.569 67.973 168.019 55.5738C162.469 43.1746 181.663 11.4364 157.294 2.46837Z" fill="#8ED2CB"/>
</svg>
