<svg width="44" height="28" viewBox="0 0 44 28" fill="none" xmlns="http://www.w3.org/2000/svg">
<path d="M0.337608 2.15289C0.0678603 1.2041 1.23677 0.373921 1.85494 0.0774266C8.59862 -0.634159 11.2961 3.73419 11.8019 6.00731C12.8134 10.7512 14.9377 20.5059 15.3423 21.5733C15.7469 22.6406 17.6464 23.204 18.5456 23.3522C22.4232 23.451 30.4145 23.5894 31.3586 23.3522C32.3027 23.115 32.9883 22.3639 33.2131 22.018L39.451 12.2337C40.1254 11.8878 41.7101 11.4035 42.6543 12.2337C43.5984 13.0639 43.3848 14.3586 43.16 14.9021L40.294 19.646C36.7873 25.6945 34.1123 27.4043 33.2131 27.5031H18.0398C17.3654 27.5031 12.4763 26.7619 11.1275 23.6487C9.77878 20.5355 8.09285 10.01 7.0813 6.74855C6.06975 3.48711 2.6979 4.52484 1.85494 4.0801C1.01197 3.63536 0.674792 3.33886 0.337608 2.15289Z" fill="#2F292A"/>
<path d="M22.086 3.19064V8.67578H18.0398C16.8259 8.67578 17.534 9.86176 18.0398 10.4547C19.3885 11.9372 22.4569 15.1986 23.9405 16.3846C25.4241 17.5706 26.4694 16.8788 26.8066 16.3846C28.3239 14.8527 31.5946 11.5221 32.5387 10.4547C33.4828 9.38737 32.9321 8.82403 32.5387 8.67578H28.3239V2.89415C28.2677 2.39999 27.5821 1.41168 25.2893 1.41168C22.9964 1.41168 22.1984 2.59765 22.086 3.19064Z" fill="#2F292A"/>
</svg>
