<svg width="106" height="115" viewBox="0 0 106 115" fill="none" xmlns="http://www.w3.org/2000/svg">
<path d="M100.891 105.924C109.795 95.6166 102.781 80.2401 98.162 73.8402C92.5339 58.2905 94.7467 45.7689 98.5997 37.3243C102.453 28.8798 105.68 18.7076 93.0831 6.62901C80.4858 -5.44961 60.3469 2.5417 59.3027 16.9284C58.2584 31.3151 48.1942 37.1434 39.6564 34.4625C31.1187 31.7815 7.05284 22.5601 1.67342 39.5139C-3.70599 56.4676 17.1826 66.4558 14.991 86.3081C12.7993 106.16 20.5686 111.263 30.3465 113.734C40.1244 116.206 48.7737 103.741 59.0843 102.684C69.3948 101.627 89.7613 118.808 100.891 105.924Z" fill="#741445"/>
</svg>
