<svg width="153" height="121" viewBox="0 0 153 121" fill="none" xmlns="http://www.w3.org/2000/svg">
<path d="M146.451 154.418C159.441 139.38 149.21 116.947 142.47 107.61C134.259 84.9245 137.488 66.6565 143.109 54.3367C148.73 42.0169 153.439 27.1765 135.061 9.55483C116.682 -8.06683 87.3013 3.59181 85.7778 24.5808C84.2544 45.5697 69.5716 54.0727 57.1157 50.1614C44.6598 46.2502 9.54991 32.797 1.7018 57.531C-6.1463 82.2651 24.3284 96.8369 21.1309 125.8C17.9334 154.763 29.2682 162.207 43.5333 165.812C57.7984 169.417 70.417 151.233 85.4592 149.691C100.501 148.149 130.214 173.215 146.451 154.418Z" fill="#8DD2CC"/>
</svg>
