<svg width="159" height="122" viewBox="0 0 159 122" fill="none" xmlns="http://www.w3.org/2000/svg">
<path d="M126.61 1.4743C110.746 -4.16984 93.5599 7.74555 86.9498 14.4088C69.1025 24.9915 52.5772 26.7553 40.679 25.5794C28.7808 24.4036 14.8996 24.4036 3.66241 40.8656C-7.57479 57.3277 8.95049 74.9656 27.4588 71.438C45.9671 67.9104 56.5433 76.1414 55.8822 85.5483C55.2212 94.9552 51.2552 122 74.3906 122C97.526 122 103.475 97.8949 129.255 93.7793C155.034 89.6638 159 80.257 159 69.6742C159 59.0915 140.492 54.388 135.865 44.3932C131.238 34.3984 146.441 8.52946 126.61 1.4743Z" fill="#002A4E"/>
</svg>
