<svg width="100" height="86" viewBox="0 0 100 86" fill="none" xmlns="http://www.w3.org/2000/svg">
<path d="M99.7365 40.7485C101.768 21.4874 91.553 9.64986 86.1914 6.13872C63.3341 -7.78045 26.5086 5.38633 11.2705 12.1578C-3.96772 18.9293 -3.54443 28.3342 11.2705 29.8389C23.1224 31.0427 37.6551 24.823 43.4399 21.5627C39.3482 25.45 29.8949 34.278 24.8155 38.4914C18.4662 43.7581 9.15402 52.0344 22.2758 53.1629C32.7732 54.0658 49.2248 47.7708 56.1384 44.5105C54.3041 46.893 49.9584 52.7115 47.2494 56.9249C43.8631 62.1916 40.0536 70.8441 42.5932 74.2298C45.1329 77.6155 53.1753 75.3584 59.9478 69.3393C65.3659 64.524 75.7504 50.2788 80.2655 43.7581C76.4559 59.182 73.0697 84.0108 78.5724 85.8918C84.075 87.7728 97.1968 64.825 99.7365 40.7485Z" fill="#E6706F"/>
</svg>
