<svg width="196" height="196" viewBox="0 0 196 196" fill="none" xmlns="http://www.w3.org/2000/svg">
<path d="M0.0280069 41.423C0.481351 51.5904 1.72805 73.7892 2.29473 83.6177C4.37254 94.124 7.28147 120.424 2.29473 141.572C-3.9387 168.007 23.2618 163.94 53.2959 164.449C83.33 164.957 96.9303 180.716 112.231 192.409C127.531 204.101 160.399 185.8 162.665 158.348C164.932 130.896 179.666 120.729 191.566 99.3772C203.466 78.0257 189.299 62.7746 173.999 56.6742C158.698 50.5737 121.298 29.7305 103.73 13.9711C86.1634 -1.78841 58.3961 -1.78841 32.8955 2.27855C7.39485 6.34551 -0.538674 28.7138 0.0280069 41.423Z" fill="#741445"/>
</svg>
