<svg width="243" height="187" viewBox="0 0 243 187" fill="none" xmlns="http://www.w3.org/2000/svg">
<path d="M196.472 3.38031C172.535 -5.91593 145.685 11.6603 135.252 21.6104C107.461 37.1164 82.138 39.1527 64.0301 36.8685C45.9222 34.5844 24.7264 34.023 6.72856 58.8117C-11.2693 83.6003 13.0646 111.315 41.5056 106.654C69.9466 101.993 85.6762 115.042 84.1872 129.44C82.6983 143.838 75.2635 185.148 110.59 186.084C145.916 187.019 156.229 150.297 195.803 145.028C235.376 139.76 241.912 125.496 242.451 109.268C242.991 93.0405 214.97 85.0798 208.414 69.5666C201.858 54.0534 226.392 15.0006 196.472 3.38031Z" fill="#002A4E"/>
</svg>
