<svg width="261" height="221" viewBox="0 0 261 221" fill="none" xmlns="http://www.w3.org/2000/svg">
<path d="M82.5497 1.05201C109.953 -3.20608 131.766 22.3455 139.247 35.6536C162.681 59.1917 187.889 67.5433 207.106 69.4646C226.323 71.3858 248.144 75.9225 258.62 107.136C269.095 138.351 235.415 162.459 207.861 150.508C180.307 138.557 160.087 148.872 157.018 164.826C153.949 180.78 148.373 227.323 112.005 219.762C75.6361 212.201 76.811 169.928 38.0834 154.617C-0.644218 139.307 -2.77079 122.272 1.85073 104.567C6.47224 86.8618 37.621 85.0417 49.2595 69.8322C60.8979 54.6228 48.2957 6.37461 82.5497 1.05201Z" fill="#002A4E"/>
</svg>
