<svg width="141" height="116" viewBox="0 0 141 116" fill="none" xmlns="http://www.w3.org/2000/svg">
<path d="M139.784 60.9509C143.351 88.6171 117.019 103.359 103.407 107.272C89.4692 115.71 59.0602 116.675 29.502 113.779C-0.0561899 110.883 -8.65303 104.218 9.68577 97.1249C24.3568 91.4502 58.0966 89.5805 73.1326 89.355C68.2201 88.3019 52.3146 84.5555 27.9926 77.9953C-2.40985 69.795 -1.83406 55.001 11.0101 51.5264C21.2855 48.7467 46.9754 54.7832 58.536 58.1489C54.1097 54.8896 43.0144 44.5399 34.0441 29.2163C22.8312 10.0618 31.3962 4.69033 47.0995 12.6024C59.6621 18.932 80.9432 27.5174 90.0134 31.0189C77.0158 23.0089 66.0844 5.62241 61.7732 -8.31062C57.4621 -22.2436 66.1486 -28.1666 80.4383 -19.9298C94.728 -11.693 135.326 26.3682 139.784 60.9509Z" fill="#8ED2CB"/>
</svg>
