<svg width="44" height="28" viewBox="0 0 44 28" fill="none" xmlns="http://www.w3.org/2000/svg">
<path d="M0.336631 2.15289C0.0668837 1.2041 1.23579 0.373921 1.85396 0.0774266C8.59765 -0.634159 11.2951 3.73419 11.8009 6.00731C12.8125 10.7512 14.9367 20.5059 15.3413 21.5733C15.746 22.6406 17.6454 23.204 18.5446 23.3522C22.4222 23.451 30.4135 23.5894 31.3576 23.3522C32.3017 23.115 32.9873 22.3639 33.2121 22.018L39.45 12.2337C40.1244 11.8878 41.7092 11.4035 42.6533 12.2337C43.5974 13.0639 43.3839 14.3586 43.1591 14.9021L40.293 19.646C36.7863 25.6945 34.1113 27.4043 33.2121 27.5031H18.0388C17.3645 27.5031 12.4753 26.7619 11.1265 23.6487C9.7778 20.5355 8.09188 10.01 7.08032 6.74855C6.06877 3.48711 2.69693 4.52484 1.85396 4.0801C1.011 3.63536 0.673816 3.33886 0.336631 2.15289Z" fill="#2F292A"/>
<path d="M22.085 3.19064V8.67578H18.0388C16.825 8.67578 17.533 9.86176 18.0388 10.4547C19.3876 11.9372 22.4559 15.1986 23.9395 16.3846C25.4232 17.5706 26.4684 16.8788 26.8056 16.3846C28.3229 14.8527 31.5936 11.5221 32.5378 10.4547C33.4819 9.38737 32.9311 8.82403 32.5378 8.67578H28.3229V2.89415C28.2667 2.39999 27.5811 1.41168 25.2883 1.41168C22.9954 1.41168 22.1974 2.59765 22.085 3.19064Z" fill="#2F292A"/>
</svg>
