<svg width="226" height="202" viewBox="0 0 226 202" fill="none" xmlns="http://www.w3.org/2000/svg">
<path d="M1.49773 125.59C-4.86785 106.117 10.5914 73.5277 19.1167 59.6671C21.3902 49.187 31.3932 24.0688 53.2181 7.43592C75.0429 -9.1969 83.5304 5.91463 85.046 15.5495C85.4249 24.6773 84.1366 49.3222 75.9523 74.88C65.7219 106.827 42.9877 129.14 36.7358 133.196C30.4839 137.253 9.45471 149.931 1.49773 125.59Z" fill="#002A4E"/>
<path d="M124.831 70.3161C128.014 85.7319 146.239 110.208 154.954 120.519C150.975 117.138 140.404 109.058 129.946 103.785C116.874 97.1924 104.37 92.1214 113.464 112.405C120.739 128.632 136.198 142.493 143.018 147.395C136.198 145.367 120.739 141.614 113.464 142.831C104.37 144.352 114.032 155.509 129.946 166.665C145.86 177.821 165.184 189.484 198.717 199.119C232.25 208.754 225.43 191.513 225.43 186.949C225.43 183.298 214.82 161.425 209.516 150.945C195.686 122.885 165.411 64.3324 154.954 54.5961C141.882 42.4257 132.219 43.947 129.946 44.9612C127.673 45.9754 120.852 51.0464 124.831 70.3161Z" fill="#002A4E"/>
</svg>
