<svg width="151" height="153" viewBox="0 0 151 153" fill="none" xmlns="http://www.w3.org/2000/svg">
<path d="M0.0215767 32.3353C0.370837 40.2721 1.3313 57.6008 1.76788 65.273C3.36864 73.4744 5.6097 94.0042 1.76788 110.513C-3.0344 131.148 17.9211 127.974 41.0596 128.371C64.1981 128.767 74.6759 141.069 86.4634 150.197C98.251 159.324 123.572 145.038 125.319 123.608C127.065 102.179 138.416 94.2423 147.584 77.5751C156.752 60.9078 145.838 49.0026 134.05 44.2405C122.263 39.4785 93.4486 23.208 79.9148 10.906C66.381 -1.39605 44.9888 -1.39605 25.3429 1.77866C5.69706 4.95338 -0.414999 22.4143 0.0215767 32.3353Z" fill="#002A4E"/>
</svg>
