<svg width="195" height="202" viewBox="0 0 195 202" fill="none" xmlns="http://www.w3.org/2000/svg">
<path d="M88.6054 13.2686C80.9739 20.4766 64.4819 36.3689 57.1899 43.414C50.3697 51.8331 31.7792 71.5251 11.9793 82.9405C-12.7707 97.2098 8.41334 110.845 27.9044 129.309C47.3955 147.774 44.1071 166.727 45.1171 183.932C46.1271 201.136 82.168 208.482 105.084 191.126C128.001 173.77 145.689 175.724 170.225 168.34C194.762 160.957 197.278 142.009 191.906 128.618C186.534 115.228 178.028 78.4498 178.69 57.1041C179.351 35.7583 160.965 19.0077 140.906 6.39823C120.848 -6.21123 98.1448 4.25868 88.6054 13.2686Z" fill="#741445"/>
</svg>
