<svg width="99" height="112" viewBox="0 0 99 112" fill="none" xmlns="http://www.w3.org/2000/svg">
<path d="M23.4969 19.7208C3.42054 32.4338 -0.461637 49.0171 0.106817 55.7197C3.54244 83.5166 43.4066 101.936 61.1783 108.578C78.95 115.22 87.7089 107.929 78.232 95.481C70.6504 85.5222 53.9313 79.0114 46.5194 77.0009C53.2871 77.2517 68.7751 77.9446 76.5858 78.7095C86.3492 79.6656 101.201 80.6592 92.6102 69.7847C85.7375 61.0851 67.5303 53.1621 59.2858 50.288C62.9368 49.9264 71.7545 48.9411 77.8167 47.8926C85.3944 46.582 96.55 43.0873 97.9422 38.6364C99.3343 34.1855 91.2248 29.7048 80.4235 28.9822C71.7824 28.4041 50.3824 31.0115 40.7626 32.3874C58.4493 23.8768 84.895 8.07593 82.6501 2.47293C80.4052 -3.13007 48.5924 3.82958 23.4969 19.7208Z" fill="#8ED2CB"/>
</svg>
