<svg width="157" height="121" viewBox="0 0 157 121" fill="none" xmlns="http://www.w3.org/2000/svg">
<path d="M137.262 93.1863C130.266 95.5462 114.927 100.564 108.131 102.778C100.503 104.374 81.9745 109.569 68.8925 117.583C52.54 127.599 48.5476 112.319 40.7546 96.7237C32.9616 81.1287 18.9184 78.0337 7.20709 73.0098C-4.50418 67.9858 -0.264462 46.1024 17.7602 37.903C35.7849 29.7036 39.0148 19.3923 50.5198 7.7074C62.0248 -3.97746 75.8644 -0.455933 83.7895 5.99651C91.7146 12.449 115.103 26.7065 130.13 31.8784C145.157 37.0502 152.043 51.5883 155.614 65.9785C159.185 80.3687 146.008 90.2365 137.262 93.1863Z" fill="#E6706F"/>
</svg>
