<svg width="69" height="37" viewBox="0 0 69 37" fill="none" xmlns="http://www.w3.org/2000/svg">
<path d="M12.6099 7.23351C21.3819 -1.86716 34.1762 0.789194 39.4768 3.25495C46.474 4.47381 55.5618 12.2739 63.0375 20.9855C70.5133 29.6971 70.6256 33.9465 62.839 31.1613C56.6097 28.9331 46.2435 20.5142 41.8391 16.5832C42.879 18.1996 46.127 23.5321 50.7991 31.9313C56.6392 42.4304 51.2344 46.6367 46.3097 44.2459C42.37 42.3332 37.1189 33.7247 34.9859 29.6594C35.1047 31.7966 34.6306 37.7961 31.7839 44.6964C28.2254 53.3218 23.8598 52.6275 22.1452 46.1213C20.7736 40.9163 17.6933 32.7287 16.3246 29.2855C17.2262 35.1013 14.213 43.1309 10.5187 48.3827C6.82433 53.6345 2.22839 53.0705 1.03546 46.8444C-0.157477 40.6182 1.6449 18.6093 12.6099 7.23351Z" fill="#CDEBF0"/>
</svg>
