<svg width="133" height="106" viewBox="0 0 133 106" fill="none" xmlns="http://www.w3.org/2000/svg">
<path d="M109.092 1.28095C95.4228 -3.62297 80.6145 6.72974 74.919 12.5191C59.5411 21.714 45.3024 23.2464 35.0504 22.2247C24.7985 21.2031 12.838 21.2031 3.15566 35.5062C-6.5267 49.8093 7.71206 65.134 23.6595 62.0691C39.6069 59.0041 48.7197 66.1557 48.1501 74.3289C47.5806 82.5021 44.1633 106 64.0975 106C84.0318 106 89.1578 85.0562 111.37 81.4804C133.583 77.9046 137 69.7314 137 60.5366C137 51.3418 121.053 47.2552 117.066 38.5711C113.079 29.8871 126.179 7.41084 109.092 1.28095Z" fill="#CDEBF0"/>
</svg>
