<svg width="145" height="136" viewBox="0 0 145 136" fill="none" xmlns="http://www.w3.org/2000/svg">
<path d="M1.15927 63.8851C4.0512 78.6828 24.1835 85.3395 33.8882 86.8181C53.1063 94.662 63.3249 106.102 68.3764 115.611C73.4278 125.12 80.6146 135.5 101.954 135.344C123.293 135.188 131.367 113.66 118.458 101.654C105.55 89.6478 107.835 77.4596 117.047 73.063C126.258 68.6664 153.81 57.5709 141.832 40.2704C129.854 22.9699 104.047 31.0541 86.8198 13.9161C69.5926 -3.22181 58.67 -1.29672 48.6921 4.20552C38.7142 9.70776 43.8619 25.9936 36.834 34.6503C29.806 43.3069 -2.45565 45.3879 1.15927 63.8851Z" fill="#741445"/>
</svg>
