<svg width="157" height="120" viewBox="0 0 157 120" fill="none" xmlns="http://www.w3.org/2000/svg">
<path d="M125.464 1.74903C110.012 -3.93742 93.0389 7.54439 86.4838 13.9961C68.8811 24.1671 52.6864 25.7224 41.0578 24.4491C29.4293 23.1757 15.8449 23.0325 4.63481 39.0246C-6.57532 55.0166 9.3681 72.4458 27.5263 69.185C45.6845 65.9243 55.9279 74.0874 55.1592 83.2852C54.3904 92.483 50.1589 118.905 72.7995 119.144C95.4402 119.383 101.574 95.8573 126.856 92.0963C152.137 88.3353 156.14 79.1716 156.277 68.8165C156.415 58.4613 138.363 53.668 133.964 43.8404C129.566 34.0128 144.779 8.85709 125.464 1.74903Z" fill="#002A4E"/>
</svg>
