<svg width="291" height="163" viewBox="0 0 291 163" fill="none" xmlns="http://www.w3.org/2000/svg">
<path d="M254.967 -11.2959C241.913 -15.6991 213.292 -25.0619 200.613 -29.1929C186.379 -32.1708 151.808 -41.8644 127.398 -56.8159C96.8868 -75.5053 89.4374 -46.9944 74.8968 -17.8962C60.3561 11.2021 34.1533 16.9769 12.3016 26.3509C-9.55009 35.7249 -1.63934 76.5565 31.9923 91.8554C65.6239 107.154 71.6505 126.394 93.1173 148.196C114.584 169.999 140.407 163.428 155.194 151.389C169.981 139.349 213.62 112.747 241.659 103.097C269.697 93.4466 282.547 66.3205 289.209 39.4703C295.872 12.62 271.285 -5.7918 254.967 -11.2959Z" fill="#F8DCDD"/>
</svg>
