<svg width="197" height="211" viewBox="0 0 197 211" fill="none" xmlns="http://www.w3.org/2000/svg">
<path d="M1.00903 65.289C3.15807 76.7338 8.09679 101.656 10.2975 112.686C14.0633 124.1 21.2892 153.259 20.0661 178.583C18.5373 210.238 43.9669 198.647 72.8883 191.533C101.81 184.42 117.524 198.856 134.184 208.232C150.845 217.609 179.316 188.382 176.865 156.587C174.414 124.792 186.846 109.458 194.673 82.1327C202.499 54.8072 186.327 41.0941 170.609 38.0761C154.891 35.058 115.469 20.9366 95.9464 7.51627C76.4239 -5.90409 49.7646 1.20717 25.967 12.3623C2.16937 23.5174 -1.67727 50.9831 1.00903 65.289Z" fill="#741445"/>
</svg>
